<?xml version="1.0" encoding="UTF-8"?>
<!DOCTYPE svg PUBLIC "-//W3C//DTD SVG 1.1//EN" "http://www.w3.org/Graphics/SVG/1.1/DTD/svg11.dtd">
<svg xmlns="http://www.w3.org/2000/svg" version="1.1" width="355px" height="264px" style="shape-rendering:geometricPrecision; text-rendering:geometricPrecision; image-rendering:optimizeQuality; fill-rule:evenodd; clip-rule:evenodd" xmlns:xlink="http://www.w3.org/1999/xlink">
<g><path style="opacity:1" fill="#632dd7" d="M -0.5,-0.5 C 117.833,-0.5 236.167,-0.5 354.5,-0.5C 354.5,87.5 354.5,175.5 354.5,263.5C 236.167,263.5 117.833,263.5 -0.5,263.5C -0.5,175.5 -0.5,87.5 -0.5,-0.5 Z"/></g>
<g><path style="opacity:1" fill="#f3f0fb" d="M 208.5,102.5 C 211.5,102.5 214.5,102.5 217.5,102.5C 217.334,111.839 217.5,121.173 218,130.5C 221.869,126.966 225.369,123.133 228.5,119C 232.833,118.333 237.167,118.333 241.5,119C 236.406,123.421 232.073,128.421 228.5,134C 232.494,140.317 236.494,146.65 240.5,153C 236.833,153.667 233.167,153.667 229.5,153C 226.667,148.833 223.833,144.667 221,140.5C 217.853,144.206 216.687,148.539 217.5,153.5C 214.223,153.784 211.057,153.451 208,152.5C 207.182,135.759 207.349,119.093 208.5,102.5 Z"/></g>
<g><path style="opacity:1" fill="#f6f4fb" d="M 34.5,104.5 C 37.5719,104.183 40.5719,104.516 43.5,105.5C 49.5,121.167 55.5,136.833 61.5,152.5C 58.1667,153.833 54.8333,153.833 51.5,152.5C 50.0649,149.357 48.7315,146.19 47.5,143C 41.8431,142.501 36.1764,142.334 30.5,142.5C 29.6988,146.235 28.6988,149.901 27.5,153.5C 23.774,153.823 20.1073,153.489 16.5,152.5C 22.5134,136.479 28.5134,120.479 34.5,104.5 Z"/></g>
<g><path style="opacity:1" fill="#f6f4fb" d="M 95.5,114.5 C 94.5046,126.989 94.1713,139.656 94.5,152.5C 91.5,152.5 88.5,152.5 85.5,152.5C 85.5,136.5 85.5,120.5 85.5,104.5C 93.1739,104.334 100.841,104.5 108.5,105C 117.813,108.11 121.646,114.61 120,124.5C 118.472,129.193 115.638,132.859 111.5,135.5C 115.376,141.42 119.376,147.254 123.5,153C 119.5,153.667 115.5,153.667 111.5,153C 108,148.167 104.5,143.333 101,138.5C 99.2803,134.706 99.1137,130.873 100.5,127C 106.932,127.56 110.099,124.727 110,118.5C 109.5,116.667 108.333,115.5 106.5,115C 102.848,114.501 99.1817,114.335 95.5,114.5 Z"/></g>
<g><path style="opacity:1" fill="#cec5f6" d="M 95.5,114.5 C 95.5,127.5 95.5,140.5 95.5,153.5C 91.9581,153.813 88.6248,153.479 85.5,152.5C 88.5,152.5 91.5,152.5 94.5,152.5C 94.1713,139.656 94.5046,126.989 95.5,114.5 Z"/></g>
<g><path style="opacity:1" fill="#f9f8fb" d="M 250.5,117.5 C 251.5,117.5 252.5,117.5 253.5,117.5C 253.5,129.5 253.5,141.5 253.5,153.5C 250.5,153.5 247.5,153.5 244.5,153.5C 244.5,142.167 244.5,130.833 244.5,119.5C 246.786,119.405 248.786,118.738 250.5,117.5 Z"/></g>
<g><path style="opacity:1" fill="#f9f8fb" d="M 73.5,117.5 C 75.4791,129.12 76.1458,141.12 75.5,153.5C 72.5,153.5 69.5,153.5 66.5,153.5C 66.3335,142.495 66.5002,131.495 67,120.5C 69.294,119.578 71.4606,118.578 73.5,117.5 Z"/></g>
<g><path style="opacity:1" fill="#f7f6fb" d="M 138.5,118.5 C 145.905,119.239 153.239,119.239 160.5,118.5C 160.5,130.167 160.5,141.833 160.5,153.5C 156.97,154.011 153.804,153.344 151,151.5C 136.323,156.237 127.823,150.904 125.5,135.5C 126.475,127.2 130.809,121.533 138.5,118.5 Z"/></g>
<g><path style="opacity:1" fill="#cdc5f6" d="M 169.5,118.5 C 169.5,129.833 169.5,141.167 169.5,152.5C 172.167,152.5 174.833,152.5 177.5,152.5C 177.177,145.978 177.51,139.645 178.5,133.5C 178.5,140.167 178.5,146.833 178.5,153.5C 175.167,153.5 171.833,153.5 168.5,153.5C 168.172,141.655 168.505,129.988 169.5,118.5 Z"/></g>
<g><path style="opacity:1" fill="#fafafb" d="M 169.5,118.5 C 176.178,118.789 182.844,119.289 189.5,120C 195.198,121.859 198.531,125.692 199.5,131.5C 199.5,138.5 199.5,145.5 199.5,152.5C 196.833,152.5 194.167,152.5 191.5,152.5C 191.823,146.31 191.49,140.31 190.5,134.5C 189.438,129.631 186.438,127.798 181.5,129C 179.859,130.129 178.859,131.629 178.5,133.5C 177.51,139.645 177.177,145.978 177.5,152.5C 174.833,152.5 172.167,152.5 169.5,152.5C 169.5,141.167 169.5,129.833 169.5,118.5 Z"/></g>
<g><path style="opacity:1" fill="#f9f8fb" d="M 262.5,118.5 C 266.111,118.044 269.444,118.711 272.5,120.5C 282.185,117.094 289.019,120.094 293,129.5C 293.5,137.493 293.666,145.493 293.5,153.5C 290.5,153.5 287.5,153.5 284.5,153.5C 284.666,146.492 284.5,139.492 284,132.5C 279.912,127.299 275.912,127.299 272,132.5C 271.5,139.492 271.334,146.492 271.5,153.5C 268.5,153.5 265.5,153.5 262.5,153.5C 262.5,141.833 262.5,130.167 262.5,118.5 Z"/></g>
<g><path style="opacity:1" fill="#f6f5fb" d="M 311.5,118.5 C 322.925,116.29 330.425,120.623 334,131.5C 334.87,139.897 334.537,148.23 333,156.5C 326.743,166.473 318.243,168.973 307.5,164C 306.643,163.311 305.977,162.478 305.5,161.5C 307.483,159.016 309.65,156.683 312,154.5C 314.497,156.478 317.331,156.978 320.5,156C 322.5,155.333 323.833,154 324.5,152C 307.804,155.301 299.637,148.468 300,131.5C 300.848,128.302 302.348,125.469 304.5,123C 306.898,121.476 309.231,119.976 311.5,118.5 Z"/></g>
<g><path style="opacity:1" fill="#5938ec" d="M 38.5,120.5 C 40.7718,124.452 42.7718,128.618 44.5,133C 41.1177,133.824 37.7844,133.657 34.5,132.5C 35.8455,128.429 37.1788,124.429 38.5,120.5 Z"/></g>
<g><path style="opacity:1" fill="#502feb" d="M 140.5,127.5 C 148.643,126.954 152.143,130.62 151,138.5C 146.43,145.95 141.43,146.284 136,139.5C 135.333,137.167 135.333,134.833 136,132.5C 137.366,130.638 138.866,128.972 140.5,127.5 Z"/></g>
<g><path style="opacity:1" fill="#5130eb" d="M 314.5,127.5 C 321.521,127.357 325.021,130.69 325,137.5C 320.827,144.62 315.827,145.287 310,139.5C 308.474,134.239 309.974,130.239 314.5,127.5 Z"/></g>
<g><path style="opacity:1" fill="#c9bff6" d="M 199.5,131.5 C 200.492,138.648 200.825,145.981 200.5,153.5C 197.167,153.5 193.833,153.5 190.5,153.5C 190.5,147.167 190.5,140.833 190.5,134.5C 191.49,140.31 191.823,146.31 191.5,152.5C 194.167,152.5 196.833,152.5 199.5,152.5C 199.5,145.5 199.5,138.5 199.5,131.5 Z"/></g>
</svg>
