<?xml version="1.0" encoding="UTF-8"?>
<!DOCTYPE svg PUBLIC "-//W3C//DTD SVG 1.1//EN" "http://www.w3.org/Graphics/SVG/1.1/DTD/svg11.dtd">
<svg xmlns="http://www.w3.org/2000/svg" version="1.1" width="350px" height="300px" style="shape-rendering:geometricPrecision; text-rendering:geometricPrecision; image-rendering:optimizeQuality; fill-rule:evenodd; clip-rule:evenodd" xmlns:xlink="http://www.w3.org/1999/xlink">
<g><path style="opacity:1" fill="#5718ee" d="M -0.5,-0.5 C 145.833,-0.5 292.167,-0.5 438.5,-0.5C 438.5,89.5 438.5,179.5 438.5,269.5C 292.167,269.5 145.833,269.5 -0.5,269.5C -0.5,179.5 -0.5,89.5 -0.5,-0.5 Z"/></g>
<g><path style="opacity:1" fill="#f9f7fe" d="M 125.5,105.5 C 127.645,105.738 129.312,106.738 130.5,108.5C 124.656,120.874 121.822,133.874 122,147.5C 123.049,148.517 124.216,148.684 125.5,148C 129.482,143.874 132.315,139.041 134,133.5C 135.324,130.756 137.491,129.423 140.5,129.5C 139.264,133.986 137.43,138.319 135,142.5C 133.649,148.728 135.816,150.561 141.5,148C 143.123,145.92 144.623,143.754 146,141.5C 146.654,140.304 147.154,140.304 147.5,141.5C 145.074,148.193 140.408,151.693 133.5,152C 131.396,151.209 130.063,149.709 129.5,147.5C 127.387,149.786 124.887,151.452 122,152.5C 119.602,152.042 117.936,150.708 117,148.5C 116.667,144.167 116.333,139.833 116,135.5C 113.07,133.841 110.07,133.508 107,134.5C 103.394,141.379 100.061,148.379 97,155.5C 94.1425,152.938 93.8091,149.938 96,146.5C 98.1023,142.071 100.602,137.905 103.5,134C 100.447,133.821 97.4465,133.321 94.5,132.5C 94.9767,131.522 95.6433,130.689 96.5,130C 99.8333,129.667 103.167,129.333 106.5,129C 112.288,120.713 118.621,112.88 125.5,105.5 Z"/></g>
<g><path style="opacity:1" fill="#f7f4fe" d="M 163.5,105.5 C 171.486,104.748 177.986,107.415 183,113.5C 184.369,118.437 183.203,122.604 179.5,126C 173.844,129.052 167.844,131.219 161.5,132.5C 166.127,141.636 172.46,149.469 180.5,156C 178.728,157.487 176.728,157.82 174.5,157C 168.07,150.636 162.737,143.47 158.5,135.5C 155.896,141.98 153.896,148.647 152.5,155.5C 149.873,155.707 148.207,154.54 147.5,152C 151.882,137.174 157.215,122.841 163.5,109C 160.639,108.915 157.972,109.749 155.5,111.5C 154.328,111.081 153.328,110.415 152.5,109.5C 156.13,107.738 159.796,106.404 163.5,105.5 Z"/></g>
<g><path style="opacity:1" fill="#5f24ee" d="M 168.5,107.5 C 177.004,108.508 180.17,113.175 178,121.5C 173.159,125.893 167.492,128.56 161,129.5C 161.795,121.616 164.295,114.283 168.5,107.5 Z"/></g>
<g><path style="opacity:1" fill="#6f38f0" d="M 122.5,111.5 C 123.097,111.735 123.43,112.235 123.5,113C 121.211,119.427 119.044,125.927 117,132.5C 115.215,131.76 113.382,131.093 111.5,130.5C 110.417,129.635 110.251,128.635 111,127.5C 114.598,121.961 118.431,116.628 122.5,111.5 Z"/></g>
<g><path style="opacity:1" fill="#f7f4fe" d="M 142.5,118.5 C 143.833,118.5 145.167,118.5 146.5,118.5C 146.112,124.845 143.779,125.845 139.5,121.5C 140.34,120.265 141.34,119.265 142.5,118.5 Z"/></g>
<g><path style="opacity:1" fill="#f3effe" d="M 280.5,118.5 C 287.112,119.972 287.112,121.972 280.5,124.5C 276.708,122.532 276.708,120.532 280.5,118.5 Z"/></g>
<g><path style="opacity:1" fill="#f6f2fe" d="M 311.5,146.5 C 314.175,134.827 321.508,129.16 333.5,129.5C 333.5,130.5 333.5,131.5 333.5,132.5C 323.157,131.835 317.824,136.835 317.5,147.5C 319.655,147.628 321.655,147.128 323.5,146C 326.858,142.805 329.191,138.972 330.5,134.5C 331.689,133.571 333.022,133.238 334.5,133.5C 333.681,138.459 332.348,143.292 330.5,148C 330.833,148.5 331.167,149 331.5,149.5C 335.231,147.39 338.064,144.39 340,140.5C 339.968,142.598 339.301,144.598 338,146.5C 334.922,148.955 331.756,151.289 328.5,153.5C 326.706,158.261 324.04,162.427 320.5,166C 312.482,168.98 310.482,166.646 314.5,159C 317.663,156.584 320.996,154.418 324.5,152.5C 325.548,150.544 326.048,148.544 326,146.5C 320.812,152.888 315.979,152.888 311.5,146.5 Z"/></g>
<g><path style="opacity:1" fill="#f7f4fe" d="M 311.5,146.5 C 309.59,151.115 306.257,152.449 301.5,150.5C 300.304,149.441 299.637,148.107 299.5,146.5C 302.495,134.76 299.662,133.427 291,142.5C 288.752,145.328 286.752,148.328 285,151.5C 283.488,150.743 282.154,149.743 281,148.5C 275.819,153.897 271.319,153.563 267.5,147.5C 257.838,155.814 252.838,153.481 252.5,140.5C 257.811,141.028 260.145,138.694 259.5,133.5C 256.728,133.22 254.228,133.887 252,135.5C 249.027,140.246 246.527,145.246 244.5,150.5C 243.758,151.287 242.925,151.953 242,152.5C 240.113,150.974 239.113,148.974 239,146.5C 237.5,148 236,149.5 234.5,151C 229.859,152.651 227.193,151.151 226.5,146.5C 229.573,136.381 227.073,134.381 219,140.5C 216.568,144.374 213.902,148.041 211,151.5C 209.347,151.18 208.347,150.18 208,148.5C 202.799,153.811 198.299,153.478 194.5,147.5C 191.805,151.514 188.139,153.348 183.5,153C 180.98,148.547 181.146,144.047 184,139.5C 188.014,132.746 193.848,129.58 201.5,130C 204.145,131.287 205.145,133.453 204.5,136.5C 203.5,136.5 202.5,136.5 201.5,136.5C 204.021,138.872 203.854,141.205 201,143.5C 200.505,145.473 200.338,147.473 200.5,149.5C 204.536,148.98 207.703,146.98 210,143.5C 210.975,140.24 212.142,137.073 213.5,134C 214.793,133.51 216.127,133.343 217.5,133.5C 217.08,135.674 217.08,137.674 217.5,139.5C 219.324,137.511 221.324,135.677 223.5,134C 228.954,131.045 232.287,132.545 233.5,138.5C 232.833,141.167 232.167,143.833 231.5,146.5C 231.637,149.951 232.97,150.451 235.5,148C 236.667,146.833 237.833,145.667 239,144.5C 242.268,132.35 247.268,121.017 254,110.5C 260.172,104.457 262.505,105.79 261,114.5C 258.179,120.491 254.179,125.491 249,129.5C 246.741,133.596 245.741,137.929 246,142.5C 247.676,137.822 250.509,133.989 254.5,131C 261.757,128.254 264.923,130.754 264,138.5C 261.489,140.563 258.656,142.063 255.5,143C 257.804,150.595 261.638,151.428 267,145.5C 268.814,141.047 270.814,136.714 273,132.5C 276.454,128.468 278.121,128.802 278,133.5C 275.215,137.238 273.382,141.404 272.5,146C 272.261,148.259 273.261,149.426 275.5,149.5C 278.214,149.06 280.38,147.726 282,145.5C 284.184,142.134 285.517,138.467 286,134.5C 287.356,133.62 288.856,133.286 290.5,133.5C 290.338,135.527 290.505,137.527 291,139.5C 293.205,136.96 295.705,134.793 298.5,133C 301.257,132.218 303.757,132.718 306,134.5C 306.467,139.267 305.967,143.933 304.5,148.5C 307.188,148.834 309.521,148.168 311.5,146.5 Z"/></g>
<g><path style="opacity:1" fill="#662def" d="M 201.5,136.5 C 197.882,142.118 193.215,146.785 187.5,150.5C 186.214,141.416 189.88,135.083 198.5,131.5C 201.085,132.073 202.085,133.739 201.5,136.5 Z"/></g>
<g><path style="opacity:1" fill="#7440f0" d="M 257.5,112.5 C 258.055,116.421 256.555,119.754 253,122.5C 253.646,118.868 255.146,115.535 257.5,112.5 Z"/></g>
<g><path style="opacity:1" fill="#6f39f0" d="M 320.5,156.5 C 321.376,156.369 322.043,156.702 322.5,157.5C 321.533,159.63 320.366,161.63 319,163.5C 317.506,164.747 316.006,164.747 314.5,163.5C 315.833,160.507 317.833,158.173 320.5,156.5 Z"/></g>
</svg>
