<?xml version="1.0" encoding="UTF-8"?>
<!DOCTYPE svg PUBLIC "-//W3C//DTD SVG 1.1//EN" "http://www.w3.org/Graphics/SVG/1.1/DTD/svg11.dtd">
<svg xmlns="http://www.w3.org/2000/svg" version="1.1" width="315px" height="269px" style="shape-rendering:geometricPrecision; text-rendering:geometricPrecision; image-rendering:optimizeQuality; fill-rule:evenodd; clip-rule:evenodd" xmlns:xlink="http://www.w3.org/1999/xlink">
<g><path style="opacity:1" fill="#2c3032" d="M -0.5,-0.5 C 104.5,-0.5 209.5,-0.5 314.5,-0.5C 314.5,89.1667 314.5,178.833 314.5,268.5C 209.5,268.5 104.5,268.5 -0.5,268.5C -0.5,178.833 -0.5,89.1667 -0.5,-0.5 Z"/></g>
<g><path style="opacity:1" fill="#63433f" d="M 137.5,35.5 C 152.583,35.0026 167.583,35.8359 182.5,38C 193.82,40.6542 201.32,47.4875 205,58.5C 210.414,80.8254 209.414,102.825 202,124.5C 194.173,134.829 183.673,139.996 170.5,140C 159.167,140.667 147.833,140.667 136.5,140C 119.084,138.575 108.584,129.409 105,112.5C 101.424,94.4198 101.757,76.4198 106,58.5C 109.075,49.0915 115.241,42.5915 124.5,39C 129.042,38.1333 133.375,36.9666 137.5,35.5 Z"/></g>
<g><path style="opacity:1" fill="#ded4b3" d="M 167.5,98.5 C 159.35,97.5073 151.017,97.1739 142.5,97.5C 142.5,100.833 142.5,104.167 142.5,107.5C 140.167,107.5 137.833,107.5 135.5,107.5C 135.334,99.4931 135.5,91.4931 136,83.5C 140.33,72.2485 148.497,67.5818 160.5,69.5C 164.5,69.6667 168.5,69.8333 172.5,70C 173,70.5 173.5,71 174,71.5C 174.5,83.4954 174.667,95.4954 174.5,107.5C 172.167,107.5 169.833,107.5 167.5,107.5C 167.5,104.5 167.5,101.5 167.5,98.5 Z"/></g>
<g><path style="opacity:1" fill="#64433f" d="M 166.5,76.5 C 166.5,81.1667 166.5,85.8333 166.5,90.5C 158.833,90.5 151.167,90.5 143.5,90.5C 143.5,88.8333 143.5,87.1667 143.5,85.5C 144.053,81.2395 146.387,78.4061 150.5,77C 155.823,76.5006 161.156,76.334 166.5,76.5 Z"/></g>
<g><path style="opacity:1" fill="#83695d" d="M 166.5,76.5 C 167.487,81.3054 167.821,86.3054 167.5,91.5C 159.167,91.5 150.833,91.5 142.5,91.5C 142.205,89.2646 142.539,87.2646 143.5,85.5C 143.5,87.1667 143.5,88.8333 143.5,90.5C 151.167,90.5 158.833,90.5 166.5,90.5C 166.5,85.8333 166.5,81.1667 166.5,76.5 Z"/></g>
<g><path style="opacity:1" fill="#b09d87" d="M 167.5,98.5 C 159.5,98.5 151.5,98.5 143.5,98.5C 143.81,101.713 143.477,104.713 142.5,107.5C 142.5,104.167 142.5,100.833 142.5,97.5C 151.017,97.1739 159.35,97.5073 167.5,98.5 Z"/></g>
<g><path style="opacity:1" fill="#dcd4b3" d="M 53.5,220.5 C 53.5,221.5 53.5,222.5 53.5,223.5C 47.021,224.491 40.3543,224.824 33.5,224.5C 33.238,223.022 33.5713,221.689 34.5,220.5C 36.1667,220.167 37.1667,219.167 37.5,217.5C 36.3822,209.289 31.7156,206.456 23.5,209C 21.4808,212.206 20.4808,215.706 20.5,219.5C 24.1612,219.35 25.1612,220.85 23.5,224C 18.8452,224.499 14.1785,224.666 9.5,224.5C 13.0598,219.722 15.8931,214.389 18,208.5C 20.2141,201.071 22.7141,193.738 25.5,186.5C 25.1667,185.833 24.8333,185.167 24.5,184.5C 26.3399,181.665 28.8399,179.665 32,178.5C 33.4768,179.444 34.4768,180.777 35,182.5C 39.8048,194.581 44.8048,206.581 50,218.5C 50.8159,219.823 51.9826,220.489 53.5,220.5 Z"/></g>
<g><path style="opacity:1" fill="#d9c3a5" d="M 58.5,179.5 C 64.9972,179.18 67.1639,182.18 65,188.5C 61.5281,191.418 58.5281,191.085 56,187.5C 55.7225,184.498 56.5558,181.832 58.5,179.5 Z"/></g>
<g><path style="opacity:1" fill="#ddb79b" d="M 111.5,219.5 C 112.806,220.467 113.473,221.801 113.5,223.5C 109.253,224.602 104.92,224.768 100.5,224C 97.3723,218.245 94.3723,212.412 91.5,206.5C 90.6721,205.585 89.6721,204.919 88.5,204.5C 87.5059,209.456 87.1725,214.456 87.5,219.5C 91.1612,219.35 92.1612,220.85 90.5,224C 84.8333,224.667 79.1667,224.667 73.5,224C 72.0267,223.29 71.3601,222.124 71.5,220.5C 72.8221,220.67 73.9887,220.337 75,219.5C 75.4999,207.838 75.6665,196.171 75.5,184.5C 72.0791,184.762 71.0791,183.428 72.5,180.5C 82.528,179.168 92.528,179.335 102.5,181C 108.4,185.688 109.9,191.521 107,198.5C 104.577,199.785 102.744,201.618 101.5,204C 103.979,209.811 107.313,214.977 111.5,219.5 Z"/></g>
<g><path style="opacity:1" fill="#df917b" d="M 192.5,180.5 C 192.334,189.506 192.5,198.506 193,207.5C 193.717,206.956 194.217,206.289 194.5,205.5C 196.334,203.495 198.001,201.328 199.5,199C 196.654,198.121 195.987,196.454 197.5,194C 201.167,193.333 204.833,193.333 208.5,194C 209.357,194.689 210.023,195.522 210.5,196.5C 206.714,198.891 203.714,202.057 201.5,206C 204.318,210.156 207.152,214.323 210,218.5C 211.33,219.582 212.83,220.249 214.5,220.5C 213.89,221.391 213.557,222.391 213.5,223.5C 208.36,224.488 203.026,224.821 197.5,224.5C 197.328,222.508 197.995,220.842 199.5,219.5C 195.509,209.844 193.509,210.177 193.5,220.5C 194.5,220.5 195.5,220.5 196.5,220.5C 196.67,221.822 196.337,222.989 195.5,224C 191.167,224.667 186.833,224.667 182.5,224C 181.027,223.29 180.36,222.124 180.5,220.5C 181.822,220.67 182.989,220.337 184,219.5C 184.832,208.818 184.666,198.151 183.5,187.5C 182.28,187.113 181.613,186.28 181.5,185C 183.801,182.844 186.467,181.178 189.5,180C 190.749,179.26 191.749,179.427 192.5,180.5 Z"/></g>
<g><path style="opacity:1" fill="#df8470" d="M 219.5,179.5 C 225.156,179.867 226.989,182.867 225,188.5C 217.317,192.496 214.65,190.163 217,181.5C 217.995,180.934 218.828,180.267 219.5,179.5 Z"/></g>
<g><path style="opacity:1" fill="#b57a6a" d="M 192.5,180.5 C 193.167,188.833 193.833,197.167 194.5,205.5C 194.217,206.289 193.717,206.956 193,207.5C 192.5,198.506 192.334,189.506 192.5,180.5 Z"/></g>
<g><path style="opacity:1" fill="#2d3133" d="M 87.5,184.5 C 95.3223,184.166 98.1556,187.833 96,195.5C 94.3229,199.051 91.4896,200.384 87.5,199.5C 87.5,194.5 87.5,189.5 87.5,184.5 Z"/></g>
<g><path style="opacity:1" fill="#dcc6a7" d="M 53.5,223.5 C 53.5,222.5 53.5,221.5 53.5,220.5C 54.5,220.5 55.5,220.5 56.5,220.5C 56.6662,214.158 56.4995,207.825 56,201.5C 52.9043,199.972 52.9043,198.306 56,196.5C 58.9584,194.767 62.1251,193.767 65.5,193.5C 65.3336,202.173 65.5002,210.84 66,219.5C 67.8921,220.617 68.7254,222.284 68.5,224.5C 63.4053,224.779 58.4053,224.445 53.5,223.5 Z"/></g>
<g><path style="opacity:1" fill="#e09e86" d="M 152.5,193.5 C 154.912,193.244 156.579,194.244 157.5,196.5C 164.269,191.628 169.769,192.628 174,199.5C 174.333,206.167 174.667,212.833 175,219.5C 176.885,220.313 177.551,221.647 177,223.5C 172.263,224.469 167.43,224.803 162.5,224.5C 162.275,222.284 163.108,220.617 165,219.5C 165.667,213.833 165.667,208.167 165,202.5C 162.525,198.595 159.858,198.595 157,202.5C 156.333,208.167 156.333,213.833 157,219.5C 158.892,220.617 159.725,222.284 159.5,224.5C 154.5,224.5 149.5,224.5 144.5,224.5C 144.5,223.167 144.5,221.833 144.5,220.5C 145.5,220.5 146.5,220.5 147.5,220.5C 147.666,214.491 147.499,208.491 147,202.5C 145.701,201.91 144.868,200.91 144.5,199.5C 147.015,197.323 149.682,195.323 152.5,193.5 Z"/></g>
<g><path style="opacity:1" fill="#df8470" d="M 213.5,223.5 C 213.557,222.391 213.89,221.391 214.5,220.5C 215.818,217.742 216.485,214.576 216.5,211C 216.333,207.833 216.167,204.667 216,201.5C 212.904,199.972 212.904,198.306 216,196.5C 218.958,194.767 222.125,193.767 225.5,193.5C 225.334,202.173 225.5,210.84 226,219.5C 227.892,220.617 228.725,222.284 228.5,224.5C 223.405,224.779 218.405,224.445 213.5,223.5 Z"/></g>
<g><path style="opacity:1" fill="#db7564" d="M 240.5,193.5 C 241.5,193.5 242.5,193.5 243.5,193.5C 243.343,194.873 243.51,196.207 244,197.5C 247.831,193.872 252.331,192.705 257.5,194C 259.894,195.952 261.394,198.452 262,201.5C 262.333,207.5 262.667,213.5 263,219.5C 264.678,220.466 265.345,221.799 265,223.5C 260.587,224.632 256.087,224.799 251.5,224C 250.027,223.29 249.36,222.124 249.5,220.5C 250.5,220.5 251.5,220.5 252.5,220.5C 252.666,214.158 252.5,207.825 252,201.5C 249.827,199.099 247.494,199.099 245,201.5C 244.333,207.5 244.333,213.5 245,219.5C 246.976,220.543 247.476,221.877 246.5,223.5C 242.205,224.661 237.871,224.828 233.5,224C 232.027,223.29 231.36,222.124 231.5,220.5C 232.5,220.5 233.5,220.5 234.5,220.5C 234.83,214.132 234.496,207.798 233.5,201.5C 231.889,200.68 231.222,199.346 231.5,197.5C 234.912,196.958 237.912,195.625 240.5,193.5 Z"/></g>
<g><path style="opacity:1" fill="#dd695a" d="M 279.5,193.5 C 283.891,193.545 288.057,194.545 292,196.5C 294.468,195.497 296.968,194.997 299.5,195C 301.396,196.808 301.896,198.975 301,201.5C 299.644,202.38 298.144,202.714 296.5,202.5C 296.864,207.247 295.198,211.081 291.5,214C 286.763,214.937 282.096,216.104 277.5,217.5C 277.709,218.086 278.043,218.586 278.5,219C 284.455,218.885 290.122,219.885 295.5,222C 298.133,225.799 298.133,229.633 295.5,233.5C 287.042,238.401 278.375,238.734 269.5,234.5C 266.588,231.077 266.921,228.077 270.5,225.5C 268.519,220.84 269.519,217.006 273.5,214C 265.877,204.369 267.877,197.535 279.5,193.5 Z"/></g>
<g><path style="opacity:1" fill="#dda990" d="M 137.5,201.5 C 137.171,207.206 137.505,212.872 138.5,218.5C 139.107,218.376 139.44,218.043 139.5,217.5C 140.497,217.47 141.164,217.97 141.5,219C 140.088,224.141 136.754,225.807 131.5,224C 130.975,223.308 130.308,222.808 129.5,222.5C 126.842,223.997 124.009,224.997 121,225.5C 118.601,225.387 116.768,224.387 115.5,222.5C 114.699,220.958 114.366,219.292 114.5,217.5C 114.585,215.071 115.585,213.071 117.5,211.5C 120.833,209.5 124.167,207.5 127.5,205.5C 128.474,203.257 128.808,200.924 128.5,198.5C 126.856,198.286 125.356,198.62 124,199.5C 125.264,206.078 122.764,208.578 116.5,207C 114.085,200.386 116.418,196.386 123.5,195C 127.9,194.022 132.067,194.522 136,196.5C 137.009,198.025 137.509,199.692 137.5,201.5 Z"/></g>
<g><path style="opacity:1" fill="#3d403e" d="M 27.5,193.5 C 29.438,196.445 31.1047,199.612 32.5,203C 30.1902,203.497 27.8568,203.663 25.5,203.5C 25.9595,200.123 26.6261,196.789 27.5,193.5 Z"/></g>
<g><path style="opacity:1" fill="#2f3132" d="M 280.5,198.5 C 282.722,198.178 284.556,198.845 286,200.5C 286.667,203.5 286.667,206.5 286,209.5C 280.702,212.746 278.202,211.079 278.5,204.5C 278.87,202.333 279.537,200.333 280.5,198.5 Z"/></g>
<g><path style="opacity:1" fill="#816a5f" d="M 137.5,201.5 C 138.167,206.833 138.833,212.167 139.5,217.5C 139.44,218.043 139.107,218.376 138.5,218.5C 137.505,212.872 137.171,207.206 137.5,201.5 Z"/></g>
<g><path style="opacity:1" fill="#887062" d="M 127.5,210.5 C 127.56,209.957 127.893,209.624 128.5,209.5C 129.803,212.645 129.803,215.645 128.5,218.5C 128.806,215.615 128.473,212.948 127.5,210.5 Z"/></g>
<g><path style="opacity:1" fill="#343536" d="M 127.5,210.5 C 128.473,212.948 128.806,215.615 128.5,218.5C 125.491,220.164 123.491,219.33 122.5,216C 123.65,213.684 125.317,211.85 127.5,210.5 Z"/></g>
<g><path style="opacity:1" fill="#6e6057" d="M 114.5,217.5 C 114.366,219.292 114.699,220.958 115.5,222.5C 114.833,222.833 114.167,223.167 113.5,223.5C 113.473,221.801 112.806,220.467 111.5,219.5C 112.778,219.218 113.778,218.551 114.5,217.5 Z"/></g>
<g><path style="opacity:1" fill="#333233" d="M 275.5,227.5 C 279.182,227.335 282.848,227.501 286.5,228C 289.416,228.049 290.416,229.216 289.5,231.5C 284.833,232.833 280.167,232.833 275.5,231.5C 274.193,230.135 274.193,228.802 275.5,227.5 Z"/></g>
</svg>
